<?xml version="1.0" encoding="utf-8"?>
<!-- Generator: Adobe Illustrator 24.0.1, SVG Export Plug-In . SVG Version: 6.00 Build 0)  -->
<svg version="1.1" id="图层_1" xmlns="http://www.w3.org/2000/svg" xmlns:xlink="http://www.w3.org/1999/xlink" x="0px" y="0px"
	 viewBox="0 0 64 64" style="enable-background:new 0 0 64 64;" xml:space="preserve">
<style type="text/css">
	.st0{fill:#2FC36C;}
	.st1{fill:none;}
</style>
<path class="st0" d="M32,59.6c15.3,0,27.6-12.4,27.6-27.6S47.3,4.4,32,4.4S4.4,16.7,4.4,32S16.7,59.6,32,59.6z M32,55.5
	C19,55.5,8.5,45,8.5,32S19,8.5,32,8.5S55.5,19,55.5,32S45,55.5,32,55.5z"/>
<path class="st0" d="M19.2,27.1c0,1.8,1.4,3.2,3.2,3.2c1.8,0,3.2-1.4,3.2-3.2s-1.4-3.2-3.2-3.2C20.6,23.9,19.2,25.4,19.2,27.1z"/>
<path class="st0" d="M38.4,27.1c0,1.8,1.4,3.2,3.2,3.2c1.8,0,3.2-1.4,3.2-3.2c0,0,0,0,0,0c0-1.8-1.4-3.2-3.2-3.2
	C39.8,23.9,38.4,25.4,38.4,27.1C38.4,27.1,38.4,27.1,38.4,27.1z"/>
<rect x="22.4" y="41.9" class="st0" width="19.2" height="2.3"/>
<path class="st1" d="M29,37.1c3.8,0,7.6,0,11.4,0"/>
</svg>
