<?xml version="1.0" encoding="utf-8"?>
<!-- Generator: Adobe Illustrator 24.0.1, SVG Export Plug-In . SVG Version: 6.00 Build 0)  -->
<svg version="1.1" id="图层_1" xmlns="http://www.w3.org/2000/svg" xmlns:xlink="http://www.w3.org/1999/xlink" x="0px" y="0px"
	 viewBox="0 0 64 64" style="enable-background:new 0 0 64 64;" xml:space="preserve">
<style type="text/css">
	.st0{fill:#2FC36C;}
</style>
<path class="st0" d="M32,59.6c15.3,0,27.6-12.4,27.6-27.6S47.3,4.4,32,4.4S4.4,16.7,4.4,32S16.7,59.6,32,59.6z M32,55.5
	C19,55.5,8.5,45,8.5,32S19,8.5,32,8.5S55.5,19,55.5,32S45,55.5,32,55.5z"/>
<path class="st0" d="M44.3,40.9c-6.8,7.8-17.9,8-24.5,0.3c-0.7-0.8-0.7-2.2,0-3c0.7-0.8,1.9-0.8,2.6,0c5.2,6,13.9,5.9,19.3-0.3
	c0.7-0.8,1.9-0.9,2.6-0.1C45,38.7,45,40,44.3,40.9C44.3,40.8,44.3,40.9,44.3,40.9L44.3,40.9z"/>
<path class="st0" d="M19.2,27.1c0,1.8,1.4,3.2,3.2,3.2c1.8,0,3.2-1.4,3.2-3.2s-1.4-3.2-3.2-3.2S19.2,25.4,19.2,27.1z"/>
<path class="st0" d="M38.4,27.1c0,1.8,1.4,3.2,3.2,3.2s3.2-1.4,3.2-3.2l0,0c0-1.8-1.4-3.2-3.2-3.2C39.8,23.9,38.4,25.4,38.4,27.1
	L38.4,27.1z"/>
</svg>
