<svg width="184" height="184" viewBox="0 0 184 184" fill="none" xmlns="http://www.w3.org/2000/svg">
<path d="M91.875 170.625C114.161 170.074 132.72 162.382 147.551 147.551C162.382 132.72 170.074 114.161 170.625 91.875C170.074 69.5888 162.382 51.03 147.551 36.1987C132.72 21.3675 114.161 13.6763 91.875 13.125C69.5888 13.6763 51.03 21.3675 36.1987 36.1987C21.3675 51.03 13.6763 69.5888 13.125 91.875C13.6763 114.161 21.3675 132.72 36.1987 147.551C51.03 162.382 69.5888 170.074 91.875 170.625ZM91.875 183.75C65.8875 183.068 44.2575 174.077 26.9587 156.778C9.68625 139.492 0.695625 117.863 0 91.875C0.6825 65.8875 9.67312 44.2575 26.9587 26.9587C44.2706 9.68625 65.9006 0.695625 91.875 0C117.863 0.6825 139.492 9.67312 156.778 26.9587C174.077 44.2706 183.068 65.9006 183.75 91.875C183.068 117.863 174.077 139.492 156.778 156.778C139.492 174.077 117.863 183.068 91.875 183.75ZM139.65 60.9C140.932 59.7059 142.623 59.0483 144.375 59.0625C145.236 59.0565 146.089 59.2269 146.881 59.5632C147.673 59.8996 148.388 60.3947 148.982 61.0181C149.605 61.6117 150.1 62.3267 150.437 63.119C150.773 63.9114 150.944 64.7642 150.938 65.625C150.952 67.377 150.294 69.0679 149.1 70.35L90.0375 129.412C88.7554 130.607 87.0645 131.264 85.3125 131.25C83.5605 131.264 81.8696 130.607 80.5875 129.412L47.775 96.6C46.5809 95.3179 45.9233 93.627 45.9375 91.875C45.9315 91.0142 46.1019 90.1614 46.4382 89.369C46.7746 88.5767 47.2697 87.8617 47.8931 87.2681C48.4867 86.6447 49.2017 86.1496 49.994 85.8132C50.7864 85.4769 51.6392 85.3065 52.5 85.3125C54.2719 85.3125 55.8469 85.9294 57.225 87.15L85.3125 115.461L139.65 60.9Z" fill="#2FC36C"/>
</svg>
