<?xml version="1.0" standalone="no"?><!DOCTYPE svg PUBLIC "-//W3C//DTD SVG 1.1//EN" "http://www.w3.org/Graphics/SVG/1.1/DTD/svg11.dtd"><svg t="1656517554620" class="icon" viewBox="0 0 1024 1024" version="1.1" xmlns="http://www.w3.org/2000/svg" p-id="5787" xmlns:xlink="http://www.w3.org/1999/xlink" width="64" height="64"><defs><style type="text/css">@font-face { font-family: feedback-iconfont; src: url("//at.alicdn.com/t/font_1031158_u69w8yhxdu.woff2?t=1630033759944") format("woff2"), url("//at.alicdn.com/t/font_1031158_u69w8yhxdu.woff?t=1630033759944") format("woff"), url("//at.alicdn.com/t/font_1031158_u69w8yhxdu.ttf?t=1630033759944") format("truetype"); }
</style></defs><path d="M512 953.81818174c244.02272695 0 441.81818174-197.79545479 441.81818174-441.81818174C953.81818174 267.97727305 756.02272695 70.18181826 512 70.18181826 267.97727305 70.18181826 70.18181826 267.97727305 70.18181826 512c0 244.02272695 197.79545479 441.81818174 441.81818174 441.81818174z m0-65.45454522a376.36363653 376.36363653 0 1 1 0-752.72727305 376.36363653 376.36363653 0 0 1 0 752.72727305z" p-id="5788" fill="#2fc36c"></path><path d="M730.53636347 699.52727305c-121.95-121.95-317.65909131-124.48636348-437.07272694-5.07272784a32.72727305 32.72727305 0 1 0 46.30909042 46.26818174c93.55909131-93.55909131 247.82727305-91.55454521 344.4545461 5.07272784a32.72727305 32.72727305 0 1 0 46.30909043-46.22727305z" p-id="5789" fill="#2fc36c"></path><path d="M358.59090869 433.94545479m-51.13636348 0a51.13636347 51.13636347 0 1 0 102.27272784 0 51.13636347 51.13636347 0 1 0-102.27272784 0Z" p-id="5790" fill="#2fc36c"></path><path d="M665.40909131 433.94545479m-51.13636436 0a51.13636347 51.13636347 0 1 0 102.27272784 0 51.13636347 51.13636347 0 1 0-102.27272784 0Z" p-id="5791" fill="#2fc36c"></path></svg>